<?xml version="1.0" encoding="UTF-8" standalone="no"?>
<!DOCTYPE svg PUBLIC "-//W3C//DTD SVG 1.1//EN" "http://www.w3.org/Graphics/SVG/1.1/DTD/svg11.dtd">
<svg width="100%" height="100%" viewBox="0 0 100 100" version="1.1" xmlns="http://www.w3.org/2000/svg" xmlns:xlink="http://www.w3.org/1999/xlink" xml:space="preserve" xmlns:serif="http://www.serif.com/" style="fill-rule:evenodd;clip-rule:evenodd;stroke-linejoin:round;stroke-miterlimit:2;">
    <path d="M100,0L100,100L0,100L0,0L100,0ZM33.979,78.94L26.33,83.571C28.546,88.261 32.903,92.155 40.427,92.155C48.754,92.155 54.459,87.726 54.459,77.996L54.459,45.916L45.062,45.916L45.062,77.869C45.062,82.566 43.114,83.774 40.027,83.774C36.799,83.774 35.456,81.56 33.979,78.94ZM67.175,78.126L59.538,82.562C62.297,88.013 67.935,92.172 76.662,92.172C85.587,92.172 92.233,87.537 92.233,79.077C92.233,71.229 87.725,67.739 79.742,64.315L77.392,63.309C73.36,61.562 71.614,60.422 71.614,57.602C71.614,55.321 73.359,53.575 76.111,53.575C78.809,53.575 80.547,54.713 82.159,57.602L89.476,52.904C86.381,47.46 82.086,45.38 76.111,45.38C67.719,45.38 62.349,50.745 62.349,57.793C62.349,65.443 66.854,69.062 73.634,71.951L75.984,72.959C80.27,74.834 82.825,75.975 82.825,79.197C82.825,81.886 80.338,83.832 76.445,83.832C71.809,83.832 69.189,81.415 67.175,78.126Z" style="fill:white;fill-rule:nonzero;"/>
</svg>
