<?xml version="1.0" encoding="UTF-8" standalone="no"?>
<!DOCTYPE svg PUBLIC "-//W3C//DTD SVG 1.1//EN" "http://www.w3.org/Graphics/SVG/1.1/DTD/svg11.dtd">
<svg width="100%" height="100%" viewBox="0 0 600 600" version="1.1" xmlns="http://www.w3.org/2000/svg" xmlns:xlink="http://www.w3.org/1999/xlink" xml:space="preserve" xmlns:serif="http://www.serif.com/" style="fill-rule:evenodd;clip-rule:evenodd;stroke-linejoin:round;stroke-miterlimit:2;">
    <path d="M300,600C291.733,599.867 284,597.867 276.8,594L203.5,550.4C192.5,544.4 198,542.1 201.3,541C216.3,536 219,535 234.4,526.1C236.1,525.1 238.3,525.6 239.9,526.7L296.1,560.3C298.3,561.4 301.1,561.4 302.8,560.3L522.7,433C524.9,431.8 526,429.8 526,427L526,172.7C526,170 524.9,167.7 522.7,166.7L302.7,40C300.6,38.9 297.8,38.9 296.1,40L76.2,166.7C74,167.8 72.9,170.6 72.9,172.8L72.9,427C72.9,429.2 74,432 76.2,433L136.2,467.8C168.8,484.3 189.2,465.1 189.2,445.8L189.2,194.9C189.2,191.5 192,188.2 195.8,188.2L224,188.2C227.3,188.2 230.6,191 230.6,194.9L230.6,445.7C230.6,489.2 206.9,514.6 165.6,514.6C152.9,514.6 143,514.6 114.9,500.8L57,467.8C42.753,459.386 33.96,444.046 33.9,427.5L33.9,173.4C33.9,156.8 42.7,141.4 57,133.1L277,5.8C291.446,-1.944 308.854,-1.944 323.3,5.8L543,133C557.247,141.414 566.04,156.754 566.1,173.3L566.1,427.3C566.1,443.9 557.3,459.3 543,467.6L323,595C315.9,598.3 307.6,600 299.9,600M367.7,425.3C271.2,425.3 251.4,381.2 251.4,343.7C251.4,340.4 254.1,337.1 258,337.1L286.7,337.1C290,337.1 292.7,339.3 292.7,342.6C297.1,371.8 309.8,386.1 368.3,386.1C414.6,386.1 434.4,375.7 434.4,350.9C434.4,336.5 428.9,326 356.7,318.9C296.6,312.9 259.1,299.6 259.1,251.6C259.1,207 296.6,180.6 359.4,180.6C430,180.6 464.7,204.8 469.1,257.6C469.1,259.333 468.567,261 467.5,262.6C466.4,263.8 464.7,264.9 463.1,264.9L434.4,264.9C431.518,264.755 429.062,262.708 428.4,259.9C421.7,229.6 404.6,219.7 359.4,219.7C308.7,219.7 302.7,237.3 302.7,250.5C302.7,266.5 309.8,271.5 378.2,280.3C446,289 478,301.8 478,349.2C477.5,397.7 437.8,425.2 367.8,425.2" style="fill:white;fill-rule:nonzero;"/>
</svg>
