<?xml version="1.0" encoding="UTF-8" standalone="no"?>
<!DOCTYPE svg PUBLIC "-//W3C//DTD SVG 1.1//EN" "http://www.w3.org/Graphics/SVG/1.1/DTD/svg11.dtd">
<svg width="100%" height="100%" viewBox="0 0 600 600" version="1.1" xmlns="http://www.w3.org/2000/svg" xmlns:xlink="http://www.w3.org/1999/xlink" xml:space="preserve" xmlns:serif="http://www.serif.com/" style="fill-rule:evenodd;clip-rule:evenodd;stroke-linejoin:round;stroke-miterlimit:2;">
    <path d="M589.4,359.4L589.4,359.6C599.6,390.4 556.3,413.3 542.8,419.6C521.299,428.309 498.176,432.299 475,431.3L473.9,431.2L469.9,430.9L469.5,434L468.9,438.7C467.4,497.5 459,534.7 441.6,559.5C423.2,585.7 397.8,593 375.4,597.8C369.067,599.2 362.1,599.967 354.5,600.1C337.959,600.636 321.854,594.633 309.7,583.4C296.6,571.1 291.5,555.4 288.4,546L287.2,542.3C281,525.7 279,502 277.7,471.5L277.3,457.3C277.1,454.167 277,450.767 277,447.1C256.3,456.1 232.1,457.7 206.3,451.3C198.9,449.433 192.133,446.6 186,442.8C181.4,439.733 177.833,436.667 175.3,433.6C161.52,446.131 142.02,450.337 124.3,444.6C105.1,438.2 88,420.3 72,390C58.637,363.392 47.757,335.607 39.5,307C21.7,248.7 10.4,187.2 9.4,167C6.2,103.3 23.4,57.7 60.6,31.4C91.3,9.7 133.3,3.1 185.3,11.6C207.5,15.3 226.5,21 238.5,25C260.1,12.2 285.233,6 313.9,6.4C329.233,6.667 343.667,8 357.2,10.4C371.7,5.9 399.5,-0.4 431.2,-0C490.5,0.7 539.8,23.9 573.5,67C586.3,83.3 597.2,119.3 576.8,198.4C564.2,247.2 542.2,299.2 515.2,344.7C525.363,344.242 535.468,342.904 545.4,340.7C552.867,339.167 559.367,338.833 564.9,339.7C576.112,341.117 585.609,348.754 589.4,359.4ZM573,363.8C570.333,356 562.1,353.533 548.3,356.4C507.3,364.8 492.6,359 487.8,355.4C520.26,305.546 544.628,250.869 560,193.4C566.7,167.4 570.4,143.2 570.7,123.6C571.033,101.933 567.4,86.267 559.8,76.6C529.3,37.5 484.5,16.6 430.2,16C392.9,15.6 361.4,25.1 355.2,27.8C341.45,24.416 327.359,22.604 313.2,22.4C285.067,21.933 260.967,28.567 240.9,42.3C232.2,39 209.7,31.3 182.2,26.9C134.6,19.2 96.8,25 69.8,44C37.7,66.8 22.8,107.6 25.7,165.2C26.7,184.6 37.7,244.2 55.1,301.2C78.1,376.3 103,418.9 129.1,427.6C132.233,428.733 135.767,429.333 139.7,429.4C149.3,429.4 161,425 173.2,410.4C193.5,386 212.4,365.6 219.4,358.1C229.606,363.666 240.981,366.749 252.6,367.1L252.6,368L246.8,375.2C238.8,385.4 237.1,387.5 211.3,392.8C203.9,394.3 184.4,398.4 184.1,412.1C183.8,427 207.1,433.3 209.9,433.9C219.167,436.233 228.067,437.4 236.6,437.4C257.4,437.4 275.6,430.6 290.2,417.4C289.7,470.7 292,523.2 298.4,539.2C303.6,552.3 316.4,584.3 356.9,584.3C362.767,584.3 369.3,583.567 376.5,582.1C418.7,573.1 437,554.4 444.1,513.3C447.9,491.3 454.4,438.8 457.5,410.6C464,412.6 472.3,413.6 481.3,413.6C500,413.6 521.7,409.6 535.3,403.3C550.5,396.3 578,378.8 573,363.7L573,363.8ZM472.5,173.6C472.4,181.9 471.2,189.5 470,197.3C468.443,206.532 467.441,215.848 467,225.2C466.7,235.5 468,246.3 469.2,256.7C471.8,277.7 474.3,299.3 464.3,320.7C462.646,317.726 461.177,314.654 459.9,311.5C458.567,308.5 456,303.633 452.2,296.9C437.6,270.8 403.4,209.6 420.9,184.6C426.1,177.1 439.3,169.5 472.5,173.6ZM457,185.1C456.4,180.9 449,179.8 441.9,180.7C434.9,181.7 428,184.9 428.6,189.1C429.1,192.3 434.9,197.9 441.9,197.9C442.567,197.9 443.133,197.833 443.6,197.7C447.32,197.09 450.733,195.26 453.3,192.5C455.8,189.9 457.2,187 456.9,185.1L457,185.1ZM432.3,32.8C480.9,33.8 519.3,52.1 546.6,86.8C567.5,113.5 544.5,235 477.9,339.8L475.9,337.2L475.1,336.2C492.3,307.7 488.9,279.6 485.9,254.7C484.7,244.5 483.5,234.8 483.9,225.7C484.1,216.1 485.4,207.9 486.6,199.9C488.1,190.1 489.6,179.9 489.2,167.9C489.6,166.633 489.7,165.133 489.5,163.4C488.5,151.9 475.3,117.4 448.5,86.4C430.718,65.469 408.518,48.733 383.5,37.4C399.544,34.054 415.913,32.511 432.3,32.8ZM160.3,399.8C146.8,415.9 137.5,412.8 134.5,411.8C114.6,405.1 91.5,363.1 71.2,296.4C53.6,238.7 43.2,180.7 42.4,164.4C40,113 52.4,77.1 79.5,58C123.7,26.6 196.5,45.4 225.6,54.9L224.4,56.1C176.4,104.5 177.6,187.2 177.7,192.3C177.7,194.233 177.833,197.067 178.1,200.8C178.9,214.8 180.4,240.6 176.3,269.9C171.817,299.371 182.783,329.166 205.3,348.7C197.1,357.5 179.3,377 160.3,399.8ZM211.5,331.4C196.595,315.557 189.768,293.711 193,272.2C197.3,241.2 195.7,214.2 194.8,199.7C194.8,197.7 194.7,195.967 194.5,194.5C201.5,188.3 234,170.9 257.1,176.2C267.633,178.533 274.2,185.867 276.8,198.2C290.7,262.2 278.6,288.9 269,310.4C267,314.733 265.167,319.033 263.5,323.3L262.3,326.6C258.967,335.067 256.3,343 254.3,350.4C238.056,350.125 222.6,343.264 211.5,331.4ZM254.6,185C248.6,184.1 243,184.9 240.2,187C238.997,187.794 238.194,189.071 238,190.5C237.6,193 239.4,195.8 240.5,197.3C243.5,201.3 248,204.1 252.5,204.7L254.4,204.9C261.8,204.9 268.5,199.1 269.1,194.9C269.8,189.5 262.1,185.9 254.6,184.9L254.6,185ZM213.9,417.8C209.921,416.799 206.136,415.143 202.7,412.9C204.7,411.9 208.4,410.7 214.7,409.4C245,403.1 249.7,398.7 260,385.7C262.2,382.767 265.1,379.267 268.7,375.2C274.2,369.1 276.7,370.1 281.3,372C285,373.5 288.6,378.1 290,383.2C290.7,385.6 291.5,390.2 289,393.8C267.5,423.8 236.3,423.4 214,417.8L213.9,417.8ZM373,565.8C335.9,573.8 322.7,554.8 314,533.1C308.5,519.1 305.7,455.9 307.7,386.2C307.7,385.267 307.567,384.367 307.3,383.5L306.3,378.6C303.717,368.861 296.933,360.757 287.8,356.5C282.523,353.934 276.529,353.229 270.8,354.5C272.533,347.833 274.967,340.5 278.1,332.5L279.4,329.1C280.8,325.367 282.467,321.433 284.4,317.3C294.5,294.8 308.4,264.1 293.4,194.6C287.7,168.6 268.9,155.9 240.4,158.9C224.563,160.908 209.274,166.004 195.4,173.9C197.5,147.7 205.7,98.8 236.4,67.8C255.8,48.3 281.6,38.6 312.9,39.2C374.8,40.2 414.5,71.9 436.9,98.4C451.555,115.549 463.004,135.196 470.7,156.4C439.367,153.333 418.233,159.5 407.3,174.9C383.8,208.6 420.1,273.8 437.6,305.1C440.8,310.9 443.6,315.8 444.5,317.9C450.1,331.7 457.5,340.9 462.9,347.7L467.4,353.5C457.9,356.2 440.8,362.5 442.4,394.2C441.1,410 432.2,484.2 427.7,510.5C421.7,545.2 408.9,558.1 373.1,565.8L373,565.8ZM528.4,388.2C518.7,392.7 502.4,396.1 487,396.8C470,397.6 461.3,394.8 459.2,393.2C458.2,373.5 465.6,371.4 473.4,369.2L476.9,368.2L479.3,369.9C493.1,378.9 517.3,379.9 551.9,372.9L552.3,372.7C545.146,379.072 537.051,384.3 528.3,388.2L528.4,388.2Z" style="fill:white;fill-rule:nonzero;"/>
</svg>
