<?xml version="1.0" encoding="UTF-8" standalone="no"?>
<!DOCTYPE svg PUBLIC "-//W3C//DTD SVG 1.1//EN" "http://www.w3.org/Graphics/SVG/1.1/DTD/svg11.dtd">
<svg width="100%" height="100%" viewBox="0 0 100 100" version="1.1" xmlns="http://www.w3.org/2000/svg" xmlns:xlink="http://www.w3.org/1999/xlink" xml:space="preserve" xmlns:serif="http://www.serif.com/" style="fill-rule:evenodd;clip-rule:evenodd;stroke-linejoin:round;stroke-miterlimit:2;">
    <path d="M49.64,0C24.254,0 25.839,11.01 25.839,11.01L25.867,22.415L50.092,22.415L50.092,25.839L16.245,25.839C16.245,25.839 0,23.997 0,49.612C0,75.227 14.179,74.319 14.179,74.319L22.641,74.319L22.641,62.432C22.641,62.432 22.184,48.253 36.593,48.253L60.62,48.253C60.62,48.253 74.12,48.471 74.12,35.206L74.12,13.275C74.12,13.275 76.17,0 49.64,0M36.282,7.67C36.283,7.67 36.285,7.67 36.286,7.67C38.675,7.67 40.64,9.635 40.64,12.024C40.64,12.026 40.64,12.033 40.64,12.035C40.64,14.424 38.674,16.39 36.285,16.39C35.711,16.39 35.143,16.276 34.613,16.056C32.986,15.384 31.92,13.789 31.923,12.029C31.923,12.028 31.923,12.027 31.923,12.026C31.923,9.637 33.889,7.671 36.278,7.671C36.279,7.671 36.281,7.671 36.282,7.671" style="fill:white;fill-rule:nonzero;"/>
    <path d="M50.36,99.48C75.747,99.48 74.162,88.472 74.162,88.472L74.134,77.066L49.908,77.066L49.908,73.642L83.755,73.642C83.755,73.642 100,75.484 100,49.869C100,24.254 85.821,25.162 85.821,25.162L77.36,25.162L77.36,37.05C77.36,37.05 77.817,51.228 63.408,51.228L39.38,51.228C39.38,51.228 25.88,51.01 25.88,64.276L25.88,86.208C25.88,86.208 23.83,99.482 50.36,99.482M63.719,91.813C63.717,91.813 63.716,91.813 63.714,91.813C61.326,91.813 59.361,89.848 59.361,87.46C59.361,87.458 59.361,87.451 59.361,87.448C59.361,85.059 61.327,83.092 63.717,83.092C64.874,83.092 65.984,83.553 66.801,84.372C68.045,85.616 68.419,87.497 67.746,89.123C67.073,90.749 65.479,91.814 63.719,91.813" style="fill:white;fill-rule:nonzero;"/>
</svg>
