<?xml version="1.0" encoding="UTF-8" standalone="no"?>
<!DOCTYPE svg PUBLIC "-//W3C//DTD SVG 1.1//EN" "http://www.w3.org/Graphics/SVG/1.1/DTD/svg11.dtd">
<svg width="100%" height="100%" viewBox="0 0 600 600" version="1.1" xmlns="http://www.w3.org/2000/svg" xmlns:xlink="http://www.w3.org/1999/xlink" xml:space="preserve" xmlns:serif="http://www.serif.com/" style="fill-rule:evenodd;clip-rule:evenodd;stroke-linejoin:round;stroke-miterlimit:2;">
    <path d="M493.3,206.1C487.1,203.967 480.667,201.967 474,200.1L477,186.9C491.6,115.9 482,58.7 449.4,39.9C418.1,21.9 366.9,40.6 315.2,85.6C310.2,90 305.2,94.567 300.2,99.3L290.3,90.2C236.2,42.1 181.8,21.8 149.3,40.7C118,58.7 108.7,112.5 121.9,179.7C123.1,186.233 124.567,192.9 126.3,199.7C118.633,201.833 111.233,204.167 104.1,206.7C40.6,228.6 0,263.4 0,299.4C0,336.6 43.6,373.9 109.7,396.4C114.967,398.267 120.367,400 125.9,401.6C124.1,408.933 122.533,416.067 121.2,423C108.7,489 118.5,541.6 149.7,559.5C181.9,578.1 235.9,559 288.6,513C292.733,509.4 296.9,505.567 301.1,501.5C306.5,506.7 311.9,511.633 317.3,516.3C368.3,560.1 418.7,577.9 449.8,559.8C482,541.2 492.5,484.8 478.9,416.2C477.9,410.933 476.7,405.6 475.3,400.2L486.5,396.7C555.2,374 600,337.2 600,299.5C600,263.4 558.1,228.5 493.3,206.1M478.4,372.5L468.4,375.6C460.6,351.467 450.433,326.133 437.9,299.6C449.294,275.313 459.049,250.29 467.1,224.7C473.3,226.5 479.267,228.367 485,230.3C540.5,249.5 574.4,277.7 574.4,299.5C574.4,322.7 537.8,352.8 478.4,372.5M453.8,421.3C459.587,447.304 460.536,474.152 456.6,500.5C453.1,519.8 445.9,532.6 437,537.7C418,548.7 377.7,534.5 334,496.9C329,492.567 324,488 319,483.2C335.933,464.6 352.7,443.3 369.3,419.3C398.3,416.7 425.7,412.5 450.5,406.8L453.8,421.3ZM204.6,536C186.1,542.5 171.4,542.7 162.5,537.5C143.5,526.6 135.7,484.5 146.5,428C147.633,421.467 149.067,414.8 150.8,408C177.438,413.721 204.433,417.63 231.6,419.7C247.385,442.041 264.622,463.321 283.2,483.4C279.333,487.067 275.5,490.567 271.7,493.9C252.098,511.895 229.352,526.133 204.6,535.9M118,372.3C92.588,364.334 68.859,351.757 48,335.2C33.1,322.4 25.6,309.8 25.6,299.5C25.6,277.6 58.2,249.8 112.6,230.8C119.133,228.533 126,226.367 133.2,224.3C140.733,248.967 150.467,274.233 162.4,300.1C150.4,326.3 140.4,352.3 132.8,377C127.8,375.533 122.867,373.967 118,372.3M147,175C135.7,117.3 143.2,73.9 162,63C182.1,51.3 226.5,67.9 273.3,109.4L282.3,117.7C263.92,137.65 246.883,158.797 231.3,181C204.327,183.394 177.537,187.536 151.1,193.4C149.567,187.2 148.233,181.067 147.1,175M405.9,238.9C399.9,228.567 393.833,218.567 387.7,208.9C406.9,211.3 425.133,214.467 442.4,218.4C436.803,235.915 430.328,253.136 423,270C417.442,259.486 411.674,249.084 405.7,238.8M300.3,136C312.776,149.597 324.558,163.815 335.6,178.6C311.946,177.487 288.254,177.487 264.6,178.6C275.795,163.824 287.71,149.607 300.3,136M194,239C188.093,249.2 182.425,259.536 177,270C169.822,252.987 163.481,235.633 158,218C175.067,214.133 193.2,211.033 212.4,208.7C206.133,218.567 200,228.667 194,239M213,392C194.393,389.987 175.902,387.016 157.6,383.1C163.23,365.125 169.737,347.437 177.1,330.1C188.045,351.322 199.992,372.012 212.9,392.1M300.8,464.8C288.07,450.997 276.022,436.58 264.7,421.6C288.457,422.547 312.243,422.547 336,421.6C325.011,436.591 313.262,451.01 300.8,464.8M423.1,329.3C431.1,347.633 437.833,365.233 443.3,382.1C425.833,386.1 407.167,389.267 387.3,391.6C400.062,371.32 412.004,350.537 423.1,329.3M383.5,348.3C374.167,364.567 364.567,380.067 354.7,394.8C318.35,397.444 281.859,397.511 245.5,395C224.803,364.797 206.417,333.073 190.5,300.1C206.274,267.195 224.527,235.537 245.1,205.4C281.515,202.649 318.085,202.649 354.5,205.4C374.967,235.502 393.279,267.014 409.3,299.7C401.5,315.833 392.9,332.033 383.5,348.3M436.5,62.1C456.5,73.7 464.3,120.4 451.7,181.7L449,193.7C422.578,187.668 395.787,183.392 368.8,180.9C353.31,158.681 336.338,137.533 318,117.6L332,105C376.3,66.4 417.7,51.2 436.6,62M300,245.9C329.404,245.9 353.6,270.096 353.6,299.5C353.6,328.904 329.404,353.1 300,353.1C270.596,353.1 246.4,328.904 246.4,299.5C246.4,270.096 270.596,245.9 300,245.9" style="fill:white;fill-rule:nonzero;"/>
</svg>
