<?xml version="1.0" encoding="UTF-8" standalone="no"?>
<!DOCTYPE svg PUBLIC "-//W3C//DTD SVG 1.1//EN" "http://www.w3.org/Graphics/SVG/1.1/DTD/svg11.dtd">
<svg width="100%" height="100%" viewBox="0 0 100 100" version="1.1" xmlns="http://www.w3.org/2000/svg" xmlns:xlink="http://www.w3.org/1999/xlink" xml:space="preserve" xmlns:serif="http://www.serif.com/" style="fill-rule:evenodd;clip-rule:evenodd;stroke-linejoin:round;stroke-miterlimit:2;">
    <path d="M57.894,98.338C55.34,101.555 50.16,99.793 50.098,95.685L49.198,35.603L89.598,35.603C96.914,35.603 100.995,44.054 96.445,49.785L57.894,98.338Z" style="fill:white;fill-rule:nonzero;"/>
    <path d="M57.894,98.338C55.34,101.555 50.16,99.793 50.098,95.685L49.198,35.603L89.598,35.603C96.914,35.603 100.995,44.054 96.445,49.785L57.894,98.338Z" style="fill:white;fill-rule:nonzero;"/>
    <path d="M41.464,1.661C44.019,-1.556 49.199,0.207 49.26,4.315L49.655,64.397L9.76,64.397C2.442,64.397 -1.639,55.945 2.912,50.214L41.464,1.661Z" style="fill:white;fill-rule:nonzero;"/>
</svg>
