<?xml version="1.0" encoding="UTF-8" standalone="no"?>
<!DOCTYPE svg PUBLIC "-//W3C//DTD SVG 1.1//EN" "http://www.w3.org/Graphics/SVG/1.1/DTD/svg11.dtd">
<svg width="100%" height="100%" viewBox="0 0 100 100" version="1.1" xmlns="http://www.w3.org/2000/svg" xmlns:xlink="http://www.w3.org/1999/xlink" xml:space="preserve" xmlns:serif="http://www.serif.com/" style="fill-rule:evenodd;clip-rule:evenodd;stroke-linejoin:round;stroke-miterlimit:2;">
    <path d="M50,20C36.667,20.001 28.333,26.665 25,39.994C30,33.33 35.833,30.831 42.5,32.496C46.304,33.446 49.022,36.206 52.032,39.26C56.934,44.234 62.608,49.992 75.001,49.992C88.334,49.992 96.667,43.327 100,29.997C95,36.662 89.167,39.161 82.5,37.496C78.697,36.546 75.979,33.786 72.969,30.732C68.067,25.758 62.392,20.001 50,20.001M25,49.993C11.667,49.993 3.333,56.658 0,69.988C5,63.323 10.833,60.823 17.5,62.49C21.303,63.442 24.022,66.2 27.032,69.252C31.933,74.226 37.608,79.984 50,79.984C63.333,79.984 71.667,73.319 75,59.989C70,66.654 64.167,69.154 57.5,67.487C53.697,66.537 50.978,63.777 47.968,60.724C43.066,55.75 37.393,49.992 25,49.992" style="fill:white;fill-rule:nonzero;"/>
</svg>
