<?xml version="1.0" encoding="UTF-8" standalone="no"?>
<!DOCTYPE svg PUBLIC "-//W3C//DTD SVG 1.1//EN" "http://www.w3.org/Graphics/SVG/1.1/DTD/svg11.dtd">
<svg width="100%" height="100%" viewBox="0 0 600 600" version="1.1" xmlns="http://www.w3.org/2000/svg" xmlns:xlink="http://www.w3.org/1999/xlink" xml:space="preserve" xmlns:serif="http://www.serif.com/" style="fill-rule:evenodd;clip-rule:evenodd;stroke-linejoin:round;stroke-miterlimit:2;">
    <path d="M3,8.3C2.876,7.785 2.813,7.258 2.813,6.729C2.813,3.053 5.838,0.029 9.513,0.029C10.152,0.029 10.787,0.12 11.4,0.3L156,41.9C157.333,41.9 158.567,42.233 159.7,42.9L444.6,124.9C445.733,124.9 446.833,125.233 447.9,125.9L592.4,167.5C597.4,168.9 598.9,175.2 595.2,178.8L159,598C157.76,599.159 156.124,599.804 154.426,599.804C151.465,599.804 148.838,597.84 148,595L75.6,302.1L75.4,301.2L3,8.3ZM126.8,453.3L158.2,580.4L252.7,489.4L126.8,453.3ZM224.2,353L132.7,441L254.6,476L224.2,353ZM237.7,352L268,474.7L359.3,387L237.7,352ZM91.3,309.7L121.8,433L213.2,345L91.3,309.7ZM332.1,248.7L239.1,338.4L363,374L332.1,248.7ZM345.1,245.6L376.1,370.9L469.3,281.2L345.1,245.6ZM188.2,207.2L95,296.9L219.2,332.6L188.2,207.2ZM201.2,203.8L231.6,327L323.1,238.8L201.2,203.8ZM54.8,161.9L85.8,287.2L178.8,197.5L54.8,161.9ZM440.6,144.5L349.1,232.7L471.1,267.7L440.6,144.5ZM453.6,141.5L484.6,266.5L577.4,177.2L453.6,141.5ZM296.2,103.2L205,191L326.3,225.9L296.2,103.2ZM309.2,99.9L339.6,223.3L431.1,135.1L309.2,99.9ZM152.2,61.5L60.7,149.7L182.7,184.7L152.2,61.5ZM165.3,58.5L195.6,181.5L286.9,93.5L165.3,58.5ZM19,16.4L49.9,141.6L142.7,52L19,16.4Z" style="fill:white;fill-rule:nonzero;"/>
</svg>
