<?xml version="1.0" encoding="UTF-8" standalone="no"?>
<!DOCTYPE svg PUBLIC "-//W3C//DTD SVG 1.1//EN" "http://www.w3.org/Graphics/SVG/1.1/DTD/svg11.dtd">
<svg width="100%" height="100%" viewBox="0 0 100 100" version="1.1" xmlns="http://www.w3.org/2000/svg" xmlns:xlink="http://www.w3.org/1999/xlink" xml:space="preserve" xmlns:serif="http://www.serif.com/" style="fill-rule:evenodd;clip-rule:evenodd;stroke-linejoin:round;stroke-miterlimit:2;">
    <path d="M0,0L100,0L100,100L0,100L0,0ZM84.626,78.251C86.97,75.782 88.047,72.297 87.672,68.485C87.157,63.422 85.172,60.485 80.297,57.626C79.25,57 75.235,55 75.047,55C74.922,55 73.266,54.219 71.328,53.267C68.328,51.782 67.516,50.782 67.501,48.657C67.501,47.204 68.001,46.157 69.031,45.469C70.016,44.813 70.797,44.641 72.266,44.734C74.328,44.86 75.188,45.407 77.313,47.954C77.656,48.36 77.828,48.454 78.078,48.376C78.485,48.25 84.719,44.094 84.875,43.86C85.109,43.469 82.719,40.532 81.141,39.282C79.047,37.61 76.875,36.829 73.688,36.563C72.578,36.485 71.391,36.422 71.032,36.422C67.86,36.532 64.547,37.688 62.422,39.438C61.719,40.017 61.359,40.376 60.359,41.547C59.875,42.094 58.813,44.266 58.484,45.391C58.25,46.141 58.203,46.86 58.219,49.063C58.234,52.204 58.375,52.891 59.469,55.001C60.312,56.641 60.578,57.001 61.922,58.313C63.734,60.079 65.968,61.391 70.938,63.594C75.75,65.719 76.938,66.469 77.813,67.907C78.125,68.422 78.188,68.735 78.188,69.86C78.203,71.079 78.156,71.251 77.75,71.891C77.156,72.797 76.656,73.251 75.672,73.704C74.75,74.126 73.031,74.532 72.094,74.532C71.078,74.532 68.969,74.079 68.016,73.672C66.469,72.985 64.281,70.969 63.344,69.391C63.188,69.126 62.985,68.907 62.875,68.907C62.766,68.907 61.797,69.423 60.734,70.063C59.671,70.704 58.453,71.422 58.031,71.641C57.609,71.86 56.985,72.235 56.641,72.438C56.297,72.641 55.875,72.907 55.672,73.001C55.469,73.094 55.313,73.235 55.313,73.297C55.313,73.516 56.391,75.266 57.047,76.11C59.359,79.094 62.75,81.204 66.953,82.282C68.578,82.704 68.845,82.703 72.188,82.719C75.531,82.735 75.781,82.719 77.266,82.313C80.672,81.391 82.719,80.266 84.626,78.251ZM48.016,37.032C45.359,37.032 39.266,37.016 34.453,36.985C29.64,36.954 23.86,36.954 21.61,36.985L17.5,37.032L17.5,45.313L30.469,45.313L30.469,82.141L31.531,82.235C32.86,82.375 39.031,82.375 39.5,82.251L39.843,82.157L39.843,45.313L52.813,45.313L52.813,37.032L48.016,37.032Z" style="fill:white;fill-rule:nonzero;"/>
</svg>
