<svg xmlns="http://www.w3.org/2000/svg" viewBox="50.00 -816.00 6377.00 832.00" preserveAspectRatio="xMidYMid meet"><path d="M472-447L330-447C150-447 50-354 50-187L50 0L190 0L190-187C190-277 240-327 330-327L472-327C642-327 748-418 748-564C748-709 642-800 472-800L50-800L50-680L472-680C553-680 598-638 598-564C598-489 553-447 472-447M1213 16C1448 16 1613-156 1613-400C1613-644 1448-816 1213-816C978-816 813-644 813-400C813-156 978 16 1213 16M1213-104C1066-104 963-226 963-400C963-574 1066-696 1213-696C1360-696 1463-574 1463-400C1463-226 1360-104 1213-104M2105-467L1983-467C1803-467 1703-374 1703-207L1703 0L1843 0L1843-207C1843-297 1893-347 1983-347L1998-347L2232 0L2401 0L2164-350C2305-367 2381-445 2381-574C2381-719 2282-800 2105-800L1703-800L1703-680L2105-680C2186-680 2231-642 2231-574C2231-505 2186-467 2105-467M2986-680L3116-680L3116-800L2436-800L2436-680L2749-680C2721-640 2706-588 2706-522L2706 0L2846 0L2846-522C2846-634 2892-680 2986-680M3769-447L3471-447C3291-447 3191-354 3191-187L3191 0L3331 0L3331-187C3331-277 3381-327 3471-327L3769-327M3191-800L3191-680L3789-680L3789-800M4254 16C4489 16 4654-156 4654-400C4654-644 4489-816 4254-816C4019-816 3854-644 3854-400C3854-156 4019 16 4254 16M4254-104C4107-104 4004-226 4004-400C4004-574 4107-696 4254-696C4401-696 4504-574 4504-400C4504-226 4401-104 4254-104M4884-800L4744-800L4744 0L5322 0L5322-120L4884-120M5397-800L5397 0L5537 0L5537-800M6027 16C6262 16 6427-156 6427-400C6427-644 6262-816 6027-816C5792-816 5627-644 5627-400C5627-156 5792 16 6027 16M6027-104C5880-104 5777-226 5777-400C5777-574 5880-696 6027-696C6174-696 6277-574 6277-400C6277-226 6174-104 6027-104" fill="#fff"/></svg>
