<?xml version="1.0" encoding="UTF-8" standalone="no"?>
<!DOCTYPE svg PUBLIC "-//W3C//DTD SVG 1.1//EN" "http://www.w3.org/Graphics/SVG/1.1/DTD/svg11.dtd">
<svg width="100%" height="100%" viewBox="0 0 600 600" version="1.1" xmlns="http://www.w3.org/2000/svg" xmlns:xlink="http://www.w3.org/1999/xlink" xml:space="preserve" xmlns:serif="http://www.serif.com/" style="fill-rule:evenodd;clip-rule:evenodd;stroke-linejoin:round;stroke-miterlimit:2;">
    <g transform="matrix(1.701331,0,0,1.701331,0,80.705202)">
        <path d="M180.477,197.464L201.176,197.464L303.676,60.443L282.704,60.443L180.477,197.464Z" style="fill-rule:nonzero;"/>
    </g>
    <g transform="matrix(1.701331,0,0,1.701331,0,80.705202)">
        <path d="M323.863,218.64L323.863,218.685L264.556,139.677L253.638,153.908L319.051,243.901L13.89,243.901L13.89,13.89L149.028,13.89L223.383,112.758L234.232,98.618L171.566,13.891L171.612,13.891L161.058,0L0,0L0,257.792L352.665,257.792L323.863,218.64Z" style="fill-rule:nonzero;"/>
    </g>
    <g transform="matrix(1.701331,0,0,1.701331,0,80.705202)">
        <path d="M160.424,80.482C155.544,73.31 149.234,67.522 141.426,63.096C133.641,58.67 124.245,56.469 113.282,56.469C102.319,56.469 93.15,58.557 85.274,62.71C77.398,66.864 70.975,72.357 66.027,79.166C61.079,85.975 57.402,93.737 54.996,102.407C52.613,111.078 51.41,119.929 51.41,128.963C51.41,138.7 52.613,147.96 54.996,156.721C57.38,165.482 61.056,173.176 66.027,179.827C70.975,186.477 77.398,191.697 85.274,195.488C93.15,199.301 102.478,201.207 113.282,201.207C130.622,201.207 144.036,196.963 153.524,188.451C162.988,179.963 169.502,167.911 173.043,152.341L156.315,152.341C153.66,162.963 148.871,171.451 141.971,177.829C135.071,184.207 125.516,187.385 113.282,187.385C105.315,187.385 98.506,185.705 92.832,182.346C87.158,178.987 82.482,174.743 78.76,169.59C75.038,164.461 72.337,158.65 70.657,152.204C69.159,146.485 68.342,140.947 68.16,135.568C68.115,134.16 68.047,132.776 67.956,131.369C67.661,127.215 67.707,123.152 68.16,119.18C68.864,113.052 70.317,107.06 72.518,101.204C74.72,95.281 77.693,90.06 81.415,85.544C85.138,81.027 89.654,77.395 94.966,74.649C100.277,71.903 106.382,70.541 113.282,70.541C120.182,70.541 126.038,71.903 131.349,74.649C136.66,77.395 141.177,81.027 144.899,85.544C148.621,90.06 151.481,95.235 153.524,101.068C155.566,106.901 156.656,113.03 156.837,119.385L82.664,119.385L82.732,133.457L173.565,133.457C173.928,123.901 173.043,114.459 170.91,105.176C168.776,95.893 165.281,87.654 160.424,80.482" style="fill-rule:nonzero;"/>
    </g>
</svg>
