<?xml version="1.0" encoding="UTF-8" standalone="no"?>
<!DOCTYPE svg PUBLIC "-//W3C//DTD SVG 1.1//EN" "http://www.w3.org/Graphics/SVG/1.1/DTD/svg11.dtd">
<svg width="100%" height="100%" viewBox="0 0 600 600" version="1.1" xmlns="http://www.w3.org/2000/svg" xmlns:xlink="http://www.w3.org/1999/xlink" xml:space="preserve" xmlns:serif="http://www.serif.com/" style="fill-rule:evenodd;clip-rule:evenodd;stroke-linejoin:round;stroke-miterlimit:2;">
    <g transform="matrix(1.570681,0,0,1.570681,0,0)">
        <path d="M347.445,0L34.555,0C15.471,0 0,15.471 0,34.555L0,347.444C0,366.529 15.471,382 34.555,382L347.444,382C366.529,382 382,366.529 382,347.444L382,34.555C382,15.471 366.529,0 347.445,0ZM118.207,329.844C118.207,335.398 113.705,339.9 108.151,339.9L65.345,339.9C59.791,339.9 55.289,335.398 55.289,329.844L55.289,150.403C55.289,144.849 59.791,140.347 65.345,140.347L108.151,140.347C113.705,140.347 118.207,144.849 118.207,150.403L118.207,329.844ZM86.748,123.432C64.289,123.432 46.082,105.225 46.082,82.766C46.082,60.307 64.289,42.1 86.748,42.1C109.207,42.1 127.414,60.307 127.414,82.766C127.414,105.225 109.208,123.432 86.748,123.432ZM341.91,330.654C341.91,335.76 337.77,339.9 332.664,339.9L286.73,339.9C281.624,339.9 277.484,335.76 277.484,330.654L277.484,246.486C277.484,233.93 281.167,191.465 244.671,191.465C216.362,191.465 210.62,220.531 209.467,233.575L209.467,330.654C209.467,335.76 205.328,339.9 200.221,339.9L155.795,339.9C150.689,339.9 146.549,335.76 146.549,330.654L146.549,149.593C146.549,144.487 150.689,140.347 155.795,140.347L200.221,140.347C205.327,140.347 209.467,144.487 209.467,149.593L209.467,165.248C219.964,149.495 235.564,137.336 268.779,137.336C342.331,137.336 341.91,206.052 341.91,243.808L341.91,330.654Z" style="fill:rgb(0,119,183);fill-rule:nonzero;"/>
    </g>
    <path d="M537.031,519.352C537.031,527.372 530.529,533.874 522.509,533.874L450.361,533.874C442.341,533.874 435.839,527.372 435.839,519.352L435.839,387.151C435.839,367.429 441.624,300.73 384.3,300.73C339.836,300.73 330.817,346.384 329.006,366.872L329.006,519.352C329.006,527.372 322.505,533.874 314.483,533.874L244.704,533.874C236.684,533.874 230.182,527.372 230.182,519.352L230.182,234.963C230.182,226.943 236.684,220.44 244.704,220.44L314.483,220.44C322.503,220.44 329.006,226.943 329.006,234.963L329.006,259.552C345.493,234.809 369.996,215.711 422.166,215.711C537.693,215.711 537.031,323.642 537.031,382.945L537.031,519.352Z" style="fill:white;"/>
    <path d="M185.665,518.08C185.665,526.803 178.594,533.874 169.871,533.874L102.636,533.874C93.913,533.874 86.841,526.803 86.841,518.08L86.841,236.235C86.841,227.512 93.913,220.44 102.636,220.44L169.871,220.44C178.594,220.44 185.665,227.512 185.665,236.235L185.665,518.08Z" style="fill:white;"/>
    <path d="M136.253,193.872C100.977,193.872 72.38,165.275 72.38,129.999C72.38,94.723 100.977,66.126 136.253,66.126C171.529,66.126 200.127,94.723 200.127,129.999C200.127,165.275 171.531,193.872 136.253,193.872Z" style="fill:white;"/>
</svg>
