<?xml version="1.0" encoding="UTF-8" standalone="no"?>
<!DOCTYPE svg PUBLIC "-//W3C//DTD SVG 1.1//EN" "http://www.w3.org/Graphics/SVG/1.1/DTD/svg11.dtd">
<svg width="100%" height="100%" viewBox="0 0 600 600" version="1.1" xmlns="http://www.w3.org/2000/svg" xmlns:xlink="http://www.w3.org/1999/xlink" xml:space="preserve" xmlns:serif="http://www.serif.com/" style="fill-rule:evenodd;clip-rule:evenodd;stroke-linejoin:round;stroke-miterlimit:2;">
    <g transform="matrix(30,0,0,30,-60,-60.3)">
        <path d="M19.94,7.68L19.91,7.59C19.866,7.48 19.797,7.381 19.71,7.3L14.71,2.3C14.62,2.21 14.52,2.15 14.42,2.1L14.33,2.07C14.247,2.039 14.159,2.022 14.07,2.02C14.05,2.02 14.03,2.01 14.01,2.01L6,2.01C4.9,2.01 4,2.91 4,4.01L4,20.01C4,21.11 4.9,22.01 6,22.01L18,22.01C19.1,22.01 20,21.11 20,20.01L20,8.01C20,8.01 19.99,7.97 19.99,7.95C19.99,7.86 19.97,7.78 19.94,7.69L19.94,7.68ZM6,20L6,4L13,4L13,8C13,8.55 13.45,9 14,9L18,9L18,20L6,20Z" style="fill:rgb(70,135,204);fill-rule:nonzero;"/>
    </g>
    <g transform="matrix(1.08187,0,0,1.134243,-26.718321,-43.691361)">
        <path d="M412.913,289.741L412.913,316.09C412.913,323.361 406.724,329.264 399.101,329.264L204.887,329.264C197.264,329.264 191.075,323.361 191.075,316.09L191.075,289.741C191.075,282.47 197.264,276.567 204.887,276.567L399.101,276.567C406.724,276.567 412.913,282.47 412.913,289.741ZM412.913,395.473L412.913,421.822C412.913,429.093 406.724,434.996 399.101,434.996L204.887,434.996C197.264,434.996 191.075,429.093 191.075,421.822L191.075,395.473C191.075,388.202 197.264,382.299 204.887,382.299L399.101,382.299C406.724,382.299 412.913,388.202 412.913,395.473ZM273.334,183.677L273.334,210.025C273.334,217.297 267.145,223.2 259.522,223.2L204.887,223.2C197.264,223.2 191.075,217.297 191.075,210.025L191.075,183.677C191.075,176.406 197.264,170.503 204.887,170.503L259.522,170.503C267.145,170.503 273.334,176.406 273.334,183.677Z" style="fill:rgb(70,135,204);"/>
    </g>
</svg>
