<?xml version="1.0" encoding="UTF-8" standalone="no"?>
<!DOCTYPE svg PUBLIC "-//W3C//DTD SVG 1.1//EN" "http://www.w3.org/Graphics/SVG/1.1/DTD/svg11.dtd">
<svg width="100%" height="100%" viewBox="0 0 237 226" version="1.1" xmlns="http://www.w3.org/2000/svg" xmlns:xlink="http://www.w3.org/1999/xlink" xml:space="preserve" xmlns:serif="http://www.serif.com/" style="fill-rule:evenodd;clip-rule:evenodd;stroke-linejoin:round;stroke-miterlimit:2;">
    <path d="M122.37,3.31C61.99,0.91 11.1,47.91 8.71,108.29C6.31,168.67 53.32,219.55 113.69,221.95C174.07,224.35 224.95,177.35 227.35,116.97C229.74,56.59 182.74,5.7 122.37,3.31ZM168.55,163.59C167.19,165.99 164.54,167.19 161.96,166.83C161.17,166.72 160.38,166.46 159.64,166.04C145.18,157.81 129.42,152.45 112.8,150.11C96.18,147.77 79.55,148.58 63.38,152.51C59.87,153.36 56.34,151.21 55.49,147.7C54.64,144.19 56.79,140.66 60.3,139.81C78.08,135.49 96.36,134.6 114.62,137.17C132.88,139.74 150.2,145.63 166.11,154.68C169.24,156.47 170.34,160.45 168.56,163.59L168.55,163.59ZM182.93,134.87C180.7,138.99 175.54,140.53 171.42,138.3C154.5,129.15 136.18,123.14 116.97,120.44C97.76,117.74 78.5,118.47 59.71,122.6C58.69,122.82 57.68,122.86 56.7,122.72C53.29,122.24 50.37,119.7 49.59,116.13C48.58,111.55 51.48,107.02 56.06,106.01C76.83,101.44 98.12,100.63 119.34,103.61C140.55,106.59 160.8,113.23 179.5,123.35C183.63,125.58 185.16,130.73 182.93,134.86L182.93,134.87ZM198.87,102.49C196.77,106.53 192.4,108.62 188.14,108.02C186.99,107.86 185.86,107.5 184.77,106.94C165.07,96.69 143.85,89.92 121.7,86.81C99.55,83.7 77.28,84.36 55.52,88.78C49.86,89.93 44.35,86.27 43.2,80.62C42.05,74.96 45.71,69.45 51.36,68.3C75.46,63.41 100.1,62.68 124.61,66.12C149.12,69.56 172.6,77.06 194.42,88.41C199.54,91.07 201.53,97.38 198.87,102.5L198.87,102.49Z" style="fill:rgb(30,215,96);fill-rule:nonzero;"/>
    <path d="M198.87,102.49C196.77,106.53 192.4,108.62 188.14,108.02C186.99,107.86 185.86,107.5 184.77,106.94C165.07,96.69 143.85,89.92 121.7,86.81C99.55,83.7 77.28,84.36 55.52,88.78C49.86,89.93 44.35,86.27 43.2,80.62C42.05,74.96 45.71,69.45 51.36,68.3C75.46,63.41 100.1,62.68 124.61,66.12C149.12,69.56 172.6,77.06 194.42,88.41C199.54,91.07 201.53,97.38 198.87,102.5L198.87,102.49Z"/>
    <path d="M182.93,134.87C180.7,138.99 175.54,140.53 171.42,138.3C154.5,129.15 136.18,123.14 116.97,120.44C97.76,117.74 78.5,118.47 59.71,122.6C58.69,122.82 57.68,122.86 56.7,122.72C53.29,122.24 50.37,119.7 49.59,116.13C48.58,111.55 51.48,107.02 56.06,106.01C76.83,101.44 98.12,100.63 119.34,103.61C140.55,106.59 160.8,113.23 179.5,123.35C183.63,125.58 185.16,130.73 182.93,134.86L182.93,134.87Z"/>
    <path d="M168.55,163.59C167.19,165.99 164.54,167.19 161.96,166.83C161.17,166.72 160.38,166.46 159.64,166.04C145.18,157.81 129.42,152.45 112.8,150.11C96.18,147.77 79.55,148.58 63.38,152.51C59.87,153.36 56.34,151.21 55.49,147.7C54.64,144.19 56.79,140.66 60.3,139.81C78.08,135.49 96.36,134.6 114.62,137.17C132.88,139.74 150.2,145.63 166.11,154.68C169.24,156.47 170.34,160.45 168.56,163.59L168.55,163.59Z"/>
</svg>
