<?xml version="1.0" encoding="UTF-8" standalone="no"?>
<!DOCTYPE svg PUBLIC "-//W3C//DTD SVG 1.1//EN" "http://www.w3.org/Graphics/SVG/1.1/DTD/svg11.dtd">
<svg width="100%" height="100%" viewBox="0 0 571 603" version="1.1" xmlns="http://www.w3.org/2000/svg" xmlns:xlink="http://www.w3.org/1999/xlink" xml:space="preserve" xmlns:serif="http://www.serif.com/" style="fill-rule:evenodd;clip-rule:evenodd;stroke-linejoin:round;stroke-miterlimit:2;">
    <g transform="matrix(1,0,0,1,-3546.053318,-1291.437512)">
        <g transform="matrix(1,0,0,1,1091.898682,-15.376742)">
            <path d="M2623.816,1782.538C2606.105,1797.483 2592.434,1818.957 2581.725,1848.703L2563.698,1890.048C2545.745,1910.08 2469.426,1911.615 2454.155,1906.038L2472.072,1856.586C2522.957,1715.399 2599.642,1667.381 2750.147,1667.381L2776.664,1667.381L2712.162,1488.925L2657.694,1639.43C2629.027,1643.013 2591.042,1656.63 2560.225,1675.264C2543.741,1686.015 2535.857,1680.998 2542.307,1662.364L2661.994,1332.687L2762.331,1332.687L2918.821,1764.386C2922.082,1757.697 2924.516,1750.439 2926.125,1742.609C2931.928,1714.363 2926.983,1678.681 2911.267,1635.496L2791.65,1306.819C2791.65,1306.819 2896.221,1304.805 2925.535,1381.311L3003.871,1596.56C3042.48,1702.648 3027.709,1793.361 2964.663,1848.92C2960.918,1852.22 2957.002,1855.397 2952.918,1858.445C2950.147,1860.512 2947.299,1862.521 2944.372,1864.469C2935.7,1870.243 2926.346,1875.488 2916.32,1880.17C2909.987,1883.127 2903.386,1885.86 2896.518,1888.359C2884.406,1892.767 2872.517,1896.345 2860.875,1899.098C2852.729,1901.025 2844.703,1902.549 2836.805,1903.671C2744.42,1916.805 2669.499,1875.111 2623.816,1782.538ZM2832.433,1820.422L2808.199,1753.383L2725.78,1753.383C2721.896,1753.383 2718.098,1753.446 2714.385,1753.576C2735.263,1806.046 2762.449,1825.039 2797.498,1825.232C2805.419,1825.276 2813.742,1824.359 2822.484,1822.652C2825.742,1822.015 2829.058,1821.269 2832.433,1820.422Z" style="fill:white;"/>
        </g>
    </g>
</svg>
