<?xml version="1.0" encoding="UTF-8" standalone="no"?><!DOCTYPE svg PUBLIC "-//W3C//DTD SVG 1.1//EN" "http://www.w3.org/Graphics/SVG/1.1/DTD/svg11.dtd"><svg width="100%" height="100%" viewBox="0 0 22147 10963" version="1.1" xmlns="http://www.w3.org/2000/svg" xmlns:xlink="http://www.w3.org/1999/xlink" xml:space="preserve" xmlns:serif="http://www.serif.com/" style="fill-rule:evenodd;clip-rule:evenodd;stroke-linejoin:round;stroke-miterlimit:2;"><rect x="-1551.224" y="-2166.99" width="25249.323" height="15296.481" style="fill:#fff;"/><clipPath id="_clip1"><rect x="7462.375" y="1870.187" width="7222.125" height="7222.125"/></clipPath><g clip-path="url(#_clip1)"><path d="M11073.438,1870.187c1995.112,0 3611.063,1587.664 3611.063,3547.869c-0.301,1524.771 -990.033,2878.92 -2460.036,3366.413c-180.553,35.509 -248.261,-75.23 -248.261,-168.516c0,-119.767 4.514,-501.035 4.514,-975.589c0,-332.519 -112.846,-545.571 -243.747,-656.311c803.461,-88.772 1647.547,-390.296 1647.547,-1751.967c0,-390.296 -139.929,-705.361 -370.134,-953.621c36.111,-88.772 162.498,-452.286 -36.111,-940.381c0,0 -302.426,-97.499 -993.042,363.815c-294.204,-80.147 -597.841,-120.43 -902.766,-119.767c-306.94,0 -613.881,40.023 -902.766,119.767c-690.616,-456.799 -993.042,-363.815 -993.042,-363.815c-198.608,488.095 -72.221,851.609 -36.111,940.381c-230.205,248.261 -370.134,567.84 -370.134,953.621c0,1357.158 839.572,1663.195 1643.033,1751.967c-103.818,88.471 -198.608,243.747 -230.205,474.554c-207.636,93.286 -726.726,243.747 -1051.722,-292.797c-67.707,-106.526 -270.83,-368.027 -555.201,-363.815c-302.426,4.514 -121.873,168.516 4.514,235.02c153.47,84.258 329.509,399.323 370.134,501.336c72.221,199.511 306.94,580.779 1214.22,416.777c0,297.311 4.514,576.566 4.514,660.824c0,93.286 -67.707,199.812 -248.261,168.516c-1475.119,-482.378 -2469.967,-1838.633 -2469.064,-3366.112c0,-1960.506 1615.95,-3548.17 3611.063,-3548.17Z"/></g></svg>